PathFileType	4	(X/Y/Z)	60_1_16_p1_0-194_filt_butterworth.trc
DataRate	CameraRate	NumFrames	NumMarkers	Units	OrigDataRate	OrigDataStartFrame	OrigNumFrames
47.0	47.0	5	27	m	47.0	145	194
Frame#	Time	RHip			RKnee			RAnkle			RBigToe			RSmallToe			RHeel			LHip			LKnee			LAnkle			LBigToe			LSmallToe			LHeel			Neck			Head			Nose			RShoulder			RElbow			RWrist			RThumb			RIndex			RPinky			LShoulder			LElbow			LWrist			LThumb			LIndex			LPinky			
		X1	Y1	Z1	X2	Y2	Z2	X3	Y3	Z3	X4	Y4	Z4	X5	Y5	Z5	X6	Y6	Z6	X7	Y7	Z7	X8	Y8	Z8	X9	Y9	Z9	X10	Y10	Z10	X11	Y11	Z11	X12	Y12	Z12	X13	Y13	Z13	X14	Y14	Z14	X15	Y15	Z15	X16	Y16	Z16	X17	Y17	Z17	X18	Y18	Z18	X19	Y19	Z19	X20	Y20	Z20	X21	Y21	Z21	X22	Y22	Z22	X23	Y23	Z23	X24	Y24	Z24	X25	Y25	Z25	X26	Y26	Z26	X27	Y27	Z27	
145	3.0851063829787235	0.3234321692276131	0.5535620761825669	0.7736128155231837	0.2995043365436683	0.1433205742900463	0.7468971959455617	0.29262328606745175	-0.30123700683705246	0.8207992299378178	0.28122304935781217	-0.33828296998113094	0.5688619991160669	0.3363688148096191	-0.3345242424019163	0.6065721076252453	0.2737452872573341	-0.3280597576604169	0.8403965876497596	0.10127045233160534	0.5522415606769298	0.7846368857143116	0.11126643029037803	0.13238844489087104	0.7656676028126435	0.12499762868723815	-0.266517288321933	0.7530470634222608	0.11224792063519957	-0.3412305057649052	0.5825384260671462	0.06401034312401868	-0.3290673598425048	0.6160641574968009	0.14088781057232172	-0.3284266167124583	0.8041181192471185	0.2155866272530424	1.1357416300465755	0.8194264538846981	0.22890585787555012	1.392285137133528	0.7606300587448187	0.2063779688728692	1.2658500096817118	0.6721815143990006	0.36421314207178734	1.0630172736592536	0.7621024664300587	0.4397786785563413	0.7924497529679116	0.8124619660574725	0.3515961451908892	0.6802076410693759	0.6114156603058858	0.2707866364066355	0.6570955285406074	0.49208108561737623	0.28460580069083835	0.6336134452006791	0.4903013885256684	0.33461091447257785	0.5814243996692114	0.5654181189286933	0.06456585888403751	1.05512968784798	0.8521157099062312	-0.0039573427439061944	0.8339098142246836	0.7788017390908739	0.08839589582959483	0.731110715710728	0.5578873836678904	0.1497766843183091	0.7154821395330004	0.47678072979643804	0.1313854254620776	0.7019404397530824	0.4210251650662694	0.0883007888526444	0.6699643840929261	0.4852874129842193	
146	3.106382978723404	0.32381912789786904	0.5531833605689749	0.7736583431364065	0.29985858111140273	0.14254804401953405	0.7481626016644742	0.2926575898489229	-0.30153091695333883	0.8207166391203117	0.2808908248608127	-0.33690158766683986	0.5670725532128701	0.3364615089733262	-0.3348863254787888	0.6068003480304662	0.27384935936454335	-0.3285766487428164	0.840543629951895	0.10096595348552156	0.55118654334331	0.7857180939260096	0.11126707159342715	0.1319460802235637	0.7656945360626382	0.12500592676566805	-0.2667486697716865	0.7529775453916046	0.11198720225794292	-0.34302927425747326	0.5842117981573038	0.06378672337118316	-0.3285765637454307	0.6147721765454539	0.14089004397634305	-0.3283191111512849	0.8040991454321441	0.2155161338524242	1.135760038013386	0.8193437082730792	0.2291061832313686	1.392222394311712	0.7617949417074926	0.20637406006047798	1.2663756357374663	0.6721945633374847	0.36359031172596024	1.0633834972107121	0.7602413163913211	0.44061002016577455	0.7922636341485512	0.8097069004460916	0.35132013336429513	0.680551307607196	0.6065080542905612	0.2707467087476784	0.6557622500718577	0.49213230422941867	0.28417946826570395	0.63080338324648	0.48781180367009114	0.33458300292895293	0.5813796626216009	0.5649437586452115	0.06464377971181924	1.0553388327537907	0.852169358159419	-0.006321262294704098	0.8333428598831154	0.7782991419172779	0.0867937642688164	0.731017273391475	0.5583157462183935	0.14941272311442813	0.7122656933727681	0.47741310302830453	0.13073254039046006	0.6988554734591912	0.42267377506181464	0.08796746915007715	0.6690100428559329	0.4849488913681418	
147	3.127659574468085	0.32420453750450845	0.5528194956372494	0.7737492691025217	0.3002484583383309	0.14168674982837345	0.7494954670597791	0.29269026785482427	-0.30164032589636414	0.8206816258721302	0.2803795374539242	-0.3357509807076723	0.5648490395726499	0.33660508668209865	-0.3353570216031283	0.6070305849924711	0.2739580803980622	-0.3290599552982758	0.8406964007208726	0.10068986574783394	0.5501588543390088	0.7867218148814948	0.11128677010656181	0.13161067733141252	0.7657530010266933	0.12487900444579414	-0.26692246748200776	0.7529645781120266	0.1119669414724949	-0.3427341137291696	0.5826482755280156	0.0633179943411924	-0.3277523208453461	0.6124907427710505	0.1408851197118922	-0.32820010634588426	0.8040743525706979	0.21513057243680533	1.1357880130959677	0.8191969977712812	0.2286364624945595	1.3921047467478276	0.7638193236135842	0.20637616436797018	1.2670459195731307	0.6722241796316485	0.3632453307627864	1.0630884384267885	0.7590624073722138	0.44113899122563555	0.7921001799630912	0.8074745479471432	0.3504371254764278	0.6806374347699455	0.6020166543976657	0.2707432559753181	0.6546329917215646	0.49170966975233565	0.2835553175531714	0.6287632718846129	0.48519437474610305	0.3339088061650684	0.581786391726797	0.5634167561956624	0.06472839861685542	1.0552254655951023	0.8525055023419752	-0.008720212901520823	0.8327220615132939	0.7778180636997739	0.08488762917920571	0.7304777300701994	0.5603007358488311	0.14868570742014092	0.7077320428778544	0.4784248654290175	0.12989863220472592	0.6954785908385946	0.4243483992663312	0.0876257182591079	0.6674878732664002	0.4847949427696835	
148	3.148936170212766	0.32460349335084177	0.5524677987055658	0.773910935528318	0.3006657924987962	0.1407495442257884	0.7508462546461755	0.29271399260735464	-0.30164010978810624	0.820679844435477	0.279793290944241	-0.3349187514210199	0.5625377562660663	0.3368137085567713	-0.33582396601160613	0.6072755852895381	0.2740693113223474	-0.32951184177441717	0.8408434622848737	0.10043896081240192	0.5492416139322128	0.7876364359838186	0.1113137137978638	0.13140835526987216	0.7657978050820229	0.12464330107073435	-0.26708445077573933	0.7529626194746197	0.11215466523027873	-0.3400288395505219	0.5780440554405001	0.0626627501223192	-0.3266569952607685	0.6097486635391127	0.14087513595205023	-0.32807620991025926	0.804030245197452	0.21447160978903634	1.1358173807383563	0.8190145394048627	0.22780637354267536	1.3919586655192944	0.7663130167121678	0.20637905402104822	1.267770254319563	0.6722602329188829	0.3632175296562239	1.062305658351976	0.758750611201322	0.44142189096057405	0.7918501633464314	0.8061564502565183	0.3492010515725449	0.6801750623893713	0.5988271193770953	0.2708705574540507	0.6537018857115947	0.49041232067834706	0.2829266657494449	0.6278654092949775	0.48272606248338734	0.33262652253567815	0.5824125094228078	0.5612520668844811	0.06479061999518768	1.0547730317728075	0.8528952062396209	-0.010893414199981938	0.8318187656326472	0.7774425849785606	0.08253865181364081	0.7291025253322408	0.5639552618726807	0.1477085004417434	0.7025223532010294	0.47982565462256344	0.12884807054431882	0.6929727785400018	0.42532753198140283	0.08718937448953712	0.66588219849079	0.48438672260794735	
149	3.1702127659574466	0.32502179124329	0.5521426013954926	0.7740620699434704	0.3010979431828765	0.1397652175721794	0.752157886007023	0.29272706250029024	-0.301582152070739	0.8207023105079548	0.2792211621944643	-0.33435332513401556	0.5604364469374375	0.33709150966492313	-0.3363893271863242	0.6075293541008241	0.27418137424754035	-0.32995026531437055	0.8409851600549983	0.10020555537494702	0.5485759698582306	0.7884518442787847	0.11132949158820135	0.131357278622792	0.7657792101853201	0.12440112239864845	-0.2672005972743311	0.7529662956792365	0.11248866414965929	-0.33563568502511265	0.5720073906439507	0.06191048021377475	-0.32530253057184383	0.6069468509991027	0.14087778451816854	-0.3279841920022991	0.8040319931036358	0.2136553538401178	1.1358495182478299	0.8188030524494788	0.22688162872026346	1.3918056141484167	0.7689240133816202	0.20634165944359706	1.2684656204862654	0.6722924160398661	0.3633730372420886	1.0613747439600596	0.7589856273122343	0.44158623951024584	0.7915495573259472	0.8058710214942828	0.3478490505569151	0.6791774465375615	0.5974682317618976	0.27096224669199787	0.653025351576769	0.48837443275284215	0.28238098268505807	0.6277245434046645	0.48048341727788657	0.3307725960129822	0.5830016692178428	0.5590798154350898	0.06474093483088478	1.0542207691756396	0.8526716183281603	-0.0125180840698638	0.8304077604046343	0.7771845691500139	0.07996606514417375	0.7268741271486482	0.568821766015726	0.14665002129518634	0.697082073323442	0.481482411483636	0.1276476089631692	0.6914745563091135	0.42531473559042965	0.08668094014426828	0.664424538260651	0.4835856429745018	
